<svg version="1.1" id="Layer_1" xmlns="http://www.w3.org/2000/svg" xmlns:xlink="http://www.w3.org/1999/xlink" x="0px" y="0px"
	 viewBox="0 0 694 143.6" xml:space="preserve">
<style type="text/css">
	.st0{fill:#FFFFFF;}
</style>
<g>
	<path class="st0" d="M84.3,26.9c-3.1-4.1-7.1-7.2-11.9-9.4c-4.8-2.2-9.8-3.3-14.9-3.3c-6.3,0-12,1.2-17,3.5
		c-5.1,2.4-9.4,5.6-13,9.7c-3.6,4.1-6.4,8.9-8.4,14.4c-2,5.5-3,11.4-3,17.7c0,5.9,0.9,11.4,2.8,16.6c1.9,5.2,4.6,9.8,8.2,13.8
		c3.6,4,7.9,7.1,13,9.4c5.1,2.3,10.9,3.5,17.4,3.5c6.4,0,12-1.3,16.8-3.9c4.8-2.6,8.9-6.3,12.2-11l12.7,9.6
		c-0.8,1.2-2.3,2.8-4.4,4.9c-2.1,2.1-4.9,4.3-8.3,6.4c-3.5,2.1-7.6,4-12.5,5.7c-4.9,1.6-10.5,2.4-16.9,2.4c-8.8,0-16.7-1.7-23.8-5
		s-13.1-7.7-18.1-13.2c-5-5.4-8.8-11.6-11.4-18.4C1.3,73.3,0,66.4,0,59.4c0-8.6,1.4-16.5,4.2-23.8C7.1,28.3,11,22,16.1,16.7
		c5.1-5.3,11.2-9.4,18.3-12.3C41.5,1.5,49.4,0,57.9,0c7.3,0,14.5,1.4,21.6,4.2s12.8,7.2,17.4,13L84.3,26.9z"/>
	<path class="st0" d="M123.4,60.3h0.3c1.2-2.6,3.4-5,6.4-7.1c3.1-2.1,7-3.2,11.9-3.2c4.2,0,7.7,0.7,10.6,2.1
		c2.9,1.4,5.3,3.2,7.1,5.5c1.8,2.3,3.1,4.9,3.9,7.8c0.8,2.9,1.2,6,1.2,9.2V114h-15.6V82.4c0-1.7-0.1-3.7-0.3-5.8
		c-0.2-2.1-0.6-4.1-1.4-6c-0.7-1.9-1.9-3.4-3.4-4.7c-1.6-1.3-3.7-1.9-6.4-1.9c-2.6,0-4.8,0.4-6.6,1.3c-1.8,0.9-3.2,2-4.4,3.5
		c-1.2,1.5-2,3.2-2.5,5.1c-0.5,1.9-0.8,3.9-0.8,6V114h-15.6V15.7h15.6V60.3z"/>
	<path class="st0" d="M286.4,70.3c-1.8-1.9-3.7-3.4-5.7-4.5c-2-1.1-4-1.7-6.1-1.7c-2.9,0-5.4,0.5-7.7,1.6c-2.3,1-4.2,2.4-5.8,4.2
		c-1.6,1.7-2.8,3.7-3.6,6c-0.8,2.3-1.2,4.6-1.2,7c0,2.4,0.4,4.8,1.2,7c0.8,2.3,2,4.2,3.6,6c1.6,1.7,3.5,3.1,5.8,4.2
		c2.3,1,4.8,1.6,7.7,1.6c2.4,0,4.7-0.5,6.8-1.5c2.1-1,3.9-2.4,5.3-4.4l10.4,11.2c-1.6,1.6-3.4,2.9-5.4,4c-2,1.1-4.1,2-6.2,2.7
		s-4.1,1.2-6,1.5c-1.9,0.3-3.6,0.5-4.9,0.5c-4.7,0-9.1-0.8-13.3-2.3c-4.2-1.6-7.8-3.8-10.8-6.6c-3-2.9-5.4-6.3-7.2-10.3
		c-1.8-4-2.7-8.5-2.7-13.5c0-4.9,0.9-9.4,2.7-13.5c1.8-4,4.2-7.5,7.2-10.3c3-2.9,6.6-5.1,10.8-6.6c4.2-1.6,8.6-2.3,13.3-2.3
		c4,0,8,0.8,12,2.3c4,1.5,7.6,3.9,10.6,7.2L286.4,70.3z"/>
	<path class="st0" d="M301.2,15.7h15.6v61.8l24-25.9h20l-26.8,28.3l28.5,34.1h-20.7l-24.8-31.8h-0.3V114h-15.6V15.7z"/>
	<path class="st0" d="M367.4,53.9h7.8v10.5h0.3c1.2-2.1,2.7-3.9,4.6-5.4c1.8-1.5,3.8-2.8,5.9-3.8c2.1-1,4.4-1.7,6.7-2.2
		c2.3-0.5,4.6-0.7,6.9-0.7c4.6,0,8.8,0.8,12.7,2.3c3.9,1.6,7.2,3.7,10,6.6c2.8,2.8,5,6.2,6.6,10c1.6,3.9,2.3,8.1,2.3,12.7
		c0,4.6-0.8,8.8-2.3,12.7c-1.6,3.9-3.8,7.2-6.6,10c-2.8,2.8-6.2,5-10,6.6c-3.9,1.6-8.1,2.3-12.7,2.3c-2.3,0-4.6-0.2-6.9-0.7
		c-2.3-0.5-4.6-1.2-6.7-2.2c-2.1-1-4.1-2.3-5.9-3.8c-1.8-1.5-3.3-3.3-4.6-5.4h-0.3v40.2h-7.8V53.9z M374.4,84c0,3.4,0.6,6.6,1.9,9.6
		c1.3,3,3.1,5.6,5.3,7.8c2.3,2.2,4.9,4,7.9,5.3c3,1.3,6.3,2,9.9,2c3.6,0,6.9-0.6,9.9-2c2.9-1.3,5.5-3.1,7.5-5.3s3.7-4.8,4.7-7.8
		c1.1-3,1.6-6.2,1.6-9.6c0-3.4-0.5-6.6-1.6-9.6c-1.1-3-2.7-5.6-4.7-7.8c-2.1-2.2-4.6-4-7.5-5.3c-2.9-1.3-6.2-2-9.9-2
		c-3.6,0-6.8,0.6-9.9,2c-3,1.3-5.7,3.1-7.9,5.3c-2.3,2.2-4,4.8-5.3,7.8C375,77.4,374.4,80.6,374.4,84z"/>
	<path class="st0" d="M441.6,84c0-4.6,0.8-8.8,2.3-12.7c1.6-3.9,3.7-7.2,6.5-10c2.8-2.8,6.1-5,10-6.6c3.9-1.6,8.1-2.3,12.7-2.3
		c4.6,0,8.8,0.8,12.7,2.3c3.9,1.6,7.2,3.7,10,6.6c2.8,2.8,5,6.2,6.6,10c1.6,3.9,2.3,8.1,2.3,12.7c0,4.6-0.8,8.8-2.3,12.7
		c-1.6,3.9-3.8,7.2-6.6,10c-2.8,2.8-6.2,5-10,6.6c-3.9,1.6-8.1,2.3-12.7,2.3c-4.6,0-8.8-0.8-12.7-2.3c-3.9-1.6-7.2-3.7-10-6.6
		c-2.8-2.8-4.9-6.2-6.5-10C442.4,92.8,441.6,88.6,441.6,84z M449.4,84c0,3.4,0.5,6.6,1.6,9.6c1.1,3,2.7,5.6,4.7,7.8
		c2.1,2.2,4.6,4,7.5,5.3c2.9,1.3,6.2,2,9.9,2c3.6,0,6.9-0.6,9.9-2c2.9-1.3,5.5-3.1,7.5-5.3s3.7-4.8,4.7-7.8c1.1-3,1.6-6.2,1.6-9.6
		c0-3.4-0.5-6.6-1.6-9.6c-1.1-3-2.7-5.6-4.7-7.8c-2.1-2.2-4.6-4-7.5-5.3c-2.9-1.3-6.2-2-9.9-2c-3.6,0-6.9,0.6-9.9,2
		c-2.9,1.3-5.5,3.1-7.5,5.3c-2.1,2.2-3.7,4.8-4.7,7.8C449.9,77.4,449.4,80.6,449.4,84z"/>
	<path class="st0" d="M518,30.1c0-1.6,0.6-3,1.7-4.2c1.1-1.1,2.5-1.7,4.2-1.7c1.6,0,3,0.6,4.2,1.7c1.1,1.1,1.7,2.5,1.7,4.2
		c0,1.6-0.6,3-1.7,4.2c-1.1,1.1-2.5,1.7-4.2,1.7c-1.6,0-3-0.6-4.2-1.7C518.6,33.2,518,31.8,518,30.1z M520,53.9h7.8V114H520V53.9z"
		/>
	<path class="st0" d="M546.4,70.8c0-1.1,0-2.5-0.1-4.1c-0.1-1.6-0.2-3.2-0.2-4.9c0-1.6-0.1-3.2-0.2-4.6c-0.1-1.4-0.1-2.5-0.1-3.3
		h7.8c0.1,2.3,0.2,4.4,0.2,6.5c0,2.1,0.2,3.4,0.3,4h0.4c1.6-3.3,4.2-6.1,7.8-8.5c3.6-2.4,7.9-3.6,12.7-3.6c4.7,0,8.5,0.7,11.4,2.2
		c2.9,1.5,5.3,3.4,7,5.8c1.7,2.4,2.9,5.1,3.5,8.3c0.6,3.1,1,6.3,1,9.6V114H590V78.6c0-2.4-0.2-4.8-0.7-7.1c-0.4-2.3-1.2-4.4-2.3-6.2
		c-1.1-1.8-2.6-3.3-4.5-4.4c-2-1.1-4.5-1.6-7.6-1.6c-2.9,0-5.6,0.5-8.1,1.5c-2.6,1-4.8,2.5-6.6,4.5c-1.9,2-3.3,4.6-4.4,7.7
		c-1.1,3.1-1.6,6.7-1.6,10.9v30h-7.8V70.8z"/>
	<path class="st0" d="M644.5,61h-17.2v39.1c0,2.7,0.7,4.8,2.2,6.2c1.5,1.5,3.5,2.2,6.1,2.2c1.5,0,3-0.2,4.5-0.6
		c1.5-0.4,3-0.9,4.4-1.5l0.6,7c-1.5,0.5-3.2,1-5.1,1.4c-1.9,0.4-3.6,0.7-5.1,0.7c-2.8,0-5.2-0.4-7.2-1.2c-2-0.8-3.6-1.9-4.8-3.3
		c-1.2-1.4-2.1-3-2.7-4.9c-0.6-1.9-0.8-3.9-0.8-6V61h-13v-7h13V36.6h7.8v17.3h17.2V61z"/>
	<path class="st0" d="M655,98.7c1.6,3.2,4.1,5.7,7.3,7.3c3.2,1.7,6.6,2.5,10.1,2.5c1.6,0,3.3-0.3,4.9-0.8c1.6-0.5,3.1-1.3,4.4-2.2
		c1.3-1,2.4-2.1,3.2-3.4c0.8-1.3,1.2-2.9,1.2-4.6c0-2.8-0.9-4.9-2.7-6.2c-1.8-1.4-4-2.5-6.6-3.2c-2.6-0.8-5.5-1.5-8.6-2
		c-3.1-0.6-6-1.4-8.6-2.6c-2.6-1.2-4.8-2.8-6.6-4.9c-1.8-2.1-2.7-5-2.7-8.8c0-2.9,0.6-5.5,1.8-7.7c1.2-2.2,2.8-4,4.7-5.4
		s4.1-2.5,6.6-3.2c2.4-0.7,4.9-1,7.4-1c4.9,0,9.2,0.9,12.8,2.7c3.6,1.8,6.4,4.7,8.4,8.6l-7,4.2c-1.5-2.8-3.3-4.9-5.5-6.3
		c-2.2-1.4-5.1-2.1-8.6-2.1c-1.4,0-2.8,0.2-4.4,0.6c-1.5,0.4-2.9,1-4.1,1.8c-1.2,0.8-2.2,1.8-3.1,3c-0.8,1.2-1.2,2.6-1.2,4.2
		c0,2.7,0.9,4.7,2.7,6c1.8,1.3,4,2.3,6.6,3.1c2.6,0.7,5.5,1.4,8.6,1.9c3.1,0.5,6,1.4,8.6,2.5c2.6,1.2,4.8,2.9,6.6,5.1
		c1.8,2.2,2.7,5.4,2.7,9.4c0,3.1-0.6,5.8-1.8,8.1c-1.2,2.3-2.8,4.2-4.8,5.8c-2,1.6-4.4,2.7-7,3.5c-2.6,0.8-5.3,1.2-8.2,1.2
		c-5.2,0-9.9-1-14.2-3c-4.3-2-7.6-5.1-9.9-9.2L655,98.7z"/>
</g>
<g>
	<path class="st0" d="M230.2,115.1H178c-1.1,0-1.9-0.9-1.9-1.9v-7.4c0-1.1,0.9-1.9,1.9-1.9h52.2c1.1,0,1.9,0.9,1.9,1.9v7.4
		C232.1,114.2,231.2,115.1,230.2,115.1z"/>
</g>
<g>
	<path class="st0" d="M230.2,62.1H178c-1.1,0-1.9-0.9-1.9-1.9v-7.4c0-1.1,0.9-1.9,1.9-1.9h52.2c1.1,0,1.9,0.9,1.9,1.9v7.4
		C232.1,61.2,231.2,62.1,230.2,62.1z"/>
</g>
<g>
	<path class="st0" d="M230.2,88.6H178c-1.1,0-1.9-0.9-1.9-1.9v-7.4c0-1.1,0.9-1.9,1.9-1.9h52.2c1.1,0,1.9,0.9,1.9,1.9v7.4
		C232.1,87.7,231.2,88.6,230.2,88.6z"/>
</g>
</svg>
