<svg width="54" height="42" viewBox="0 0 54 42" fill="none" xmlns="http://www.w3.org/2000/svg">
<path id="&#226;&#128;&#156;" d="M42.7719 41.4854C39.0357 41.4854 35.9401 40.228 33.4849 37.7133C31.1365 35.1987 29.9622 31.5907 29.9622 26.8893C29.9622 21.86 31.3499 16.8853 34.1254 11.9654C37.0075 7.04535 41.0106 3.21869 46.1344 0.485352L49.8172 6.22535C44.2664 10.1614 40.9572 15.136 39.8897 21.1494C40.8504 20.712 41.9713 20.4934 43.2523 20.4934C46.2412 20.4934 48.6964 21.4774 50.6178 23.4454C52.5393 25.4134 53.5 27.928 53.5 30.9893C53.5 34.0507 52.4859 36.5653 50.4577 38.5334C48.4295 40.5014 45.8676 41.4854 42.7719 41.4854ZM13.3097 41.4854C9.57351 41.4854 6.47784 40.228 4.02265 37.7133C1.67421 35.1987 0.5 31.5907 0.5 26.8893C0.5 21.86 1.88771 16.8853 4.66314 11.9654C7.54531 7.04535 11.5483 3.21869 16.6722 0.485352L20.355 6.22535C14.8041 10.1614 11.495 15.136 10.4275 21.1494C11.3882 20.712 12.5091 20.4934 13.79 20.4934C16.779 20.4934 19.2341 21.4774 21.1556 23.4454C23.077 25.4134 24.0378 27.928 24.0378 30.9893C24.0378 34.0507 23.0237 36.5653 20.9955 38.5334C18.9673 40.5014 16.4053 41.4854 13.3097 41.4854Z" fill="#D7CCE5"/>
</svg>
